<mxfile host="65bd71144e">
    <diagram id="ruQVEsOx5d6DtHxsiwtQ" name="第 1 页">
        <mxGraphModel dx="606" dy="479" grid="0" gridSize="10" guides="1" tooltips="1" connect="1" arrows="1" fold="1" page="1" pageScale="1" pageWidth="4681" pageHeight="3300" background="#BFF0CD" math="0" shadow="0">
            <root>
                <mxCell id="0"/>
                <mxCell id="1" parent="0"/>
                <mxCell id="4" value="meteallb备节点" style="text;whiteSpace=wrap;html=1;fillColor=#1ba1e2;fontColor=#ffffff;strokeColor=#006EAF;" parent="1" vertex="1">
                    <mxGeometry x="529" y="500" width="80" height="40" as="geometry"/>
                </mxCell>
                <mxCell id="5" value="meteallb主节点" style="text;whiteSpace=wrap;html=1;fillColor=#1ba1e2;fontColor=#ffffff;strokeColor=#006EAF;" parent="1" vertex="1">
                    <mxGeometry x="688" y="500" width="80" height="40" as="geometry"/>
                </mxCell>
                <mxCell id="10" style="edgeStyle=none;html=1;fontColor=#FF3333;strokeColor=#000000;" parent="1" source="6" target="5" edge="1">
                    <mxGeometry relative="1" as="geometry"/>
                </mxCell>
                <mxCell id="6" value="集群外机器" style="text;whiteSpace=wrap;html=1;fillColor=#b0e3e6;strokeColor=#0e8088;" parent="1" vertex="1">
                    <mxGeometry x="840" y="454" width="80" height="40" as="geometry"/>
                </mxCell>
                <mxCell id="8" value="&lt;font color=&quot;#000000&quot;&gt;uk8s集群&lt;/font&gt;" style="rounded=0;whiteSpace=wrap;html=1;dashed=1;strokeColor=#000000;fillColor=none;" parent="1" vertex="1">
                    <mxGeometry x="508" y="456" width="272" height="128" as="geometry"/>
                </mxCell>
                <mxCell id="13" style="edgeStyle=none;html=1;entryX=1;entryY=0.75;entryDx=0;entryDy=0;strokeColor=#000000;fontColor=#000000;" parent="1" source="11" target="5" edge="1">
                    <mxGeometry relative="1" as="geometry"/>
                </mxCell>
                <mxCell id="11" value="集群外机器" style="text;whiteSpace=wrap;html=1;fillColor=#b0e3e6;strokeColor=#0e8088;" parent="1" vertex="1">
                    <mxGeometry x="840" y="544" width="80" height="40" as="geometry"/>
                </mxCell>
            </root>
        </mxGraphModel>
    </diagram>
</mxfile>